<?xml version="1.0" standalone="no"?>
<!DOCTYPE svg PUBLIC "-//W3C//DTD SVG 20010904//EN"
 "http://www.w3.org/TR/2001/REC-SVG-20010904/DTD/svg10.dtd">
<svg version="1.0" xmlns="http://www.w3.org/2000/svg"
 width="32" height="32" viewBox="0 0 256.000000 256.000000"
 preserveAspectRatio="xMidYMid meet">

<g transform="translate(0.000000,256.000000) scale(0.100000,-0.100000)"
fill="rgb(30, 255, 60)" stroke="none">
<path d="M1140 2554 c-289 -37 -540 -157 -746 -356 -525 -508 -524 -1339 1
-1847 129 -125 285 -224 442 -281 54 -19 64 -20 90 -8 l28 13 3 126 3 125
-113 -1 c-103 0 -118 2 -168 27 -75 37 -110 77 -165 185 -43 87 -76 125 -150
179 -42 30 -29 54 30 54 81 0 130 -36 228 -169 47 -66 113 -96 202 -95 39 0
86 7 105 16 30 13 37 22 48 65 7 28 24 66 38 84 l25 34 -88 17 c-118 23 -212
61 -281 113 -120 92 -178 207 -202 400 -19 153 8 285 81 394 l41 61 -12 52
c-15 60 -8 185 13 243 l14 40 56 -2 c61 -2 125 -26 230 -86 l68 -39 87 18
c121 25 335 25 464 0 95 -19 96 -19 125 1 81 58 237 117 289 111 21 -2 30 -12
41 -43 21 -59 28 -183 13 -243 l-12 -52 41 -61 c73 -109 100 -241 81 -394 -20
-165 -63 -266 -152 -356 -83 -84 -183 -128 -381 -167 l-37 -7 25 -35 c44 -63
55 -134 55 -363 0 -116 4 -216 10 -227 16 -30 54 -32 122 -6 162 61 302 150
434 278 524 507 524 1339 0 1846 -177 171 -375 278 -616 333 -83 19 -331 33
-410 23z"/>
</g>
</svg>
