<?xml version="1.0" standalone="no"?>
<!DOCTYPE svg PUBLIC "-//W3C//DTD SVG 20010904//EN"
 "http://www.w3.org/TR/2001/REC-SVG-20010904/DTD/svg10.dtd">
<svg version="1.0" xmlns="http://www.w3.org/2000/svg"
 width="30" height="30" viewBox="0 0 48.000000 48.000000"
 preserveAspectRatio="xMidYMid meet">

<g transform="translate(0.000000,48.000000) scale(0.100000,-0.100000)"
fill="#000000" stroke="none">
<path d="M191 426 c-87 -48 -50 -186 49 -186 51 0 100 49 100 99 0 75 -83 124
-149 87z m96 -38 c29 -27 29 -65 1 -95 -27 -29 -65 -29 -95 -1 -29 27 -29 65
-1 95 27 29 65 29 95 1z"/>
<path d="M338 204 c-30 -16 -44 -51 -35 -86 4 -14 -2 -31 -19 -50 -13 -16 -24
-34 -24 -39 0 -17 26 -9 49 15 18 20 29 23 61 19 32 -5 43 -1 64 20 41 42 32
97 -21 125 -28 15 -42 15 -75 -4z m76 -30 c31 -30 9 -84 -34 -84 -24 0 -50 26
-50 50 0 24 26 50 50 50 10 0 26 -7 34 -16z"/>
<path d="M92 188 c-21 -21 -14 -66 16 -98 35 -38 112 -61 138 -39 15 13 12 15
-31 21 -59 8 -99 36 -103 71 l-3 27 89 0 c71 0 91 3 96 15 4 13 -10 15 -92 15
-63 0 -102 -4 -110 -12z"/>
</g>
</svg>
